# xmcd
#
# Track frame offsets:
#	150
#	12680
#	23065
#	37722
#	49780
#	58990
#	72730
#	84687
#	103262
#	114692
#	125305
#	137245
#	150965
#	164190
#	174050
#	187582
#
# Disc length: 2693 seconds
#
# Revision: 1
# Processed by: cddbd v1.5.2PL0 Copyright (c) Steve Scherf et al.
# Submitted via: audiograbber 1.83.01
#
DISCID=d80a8310
DTITLE=Jack Robertson - Something To Hold On To
DYEAR=1900
DGENRE=
TTITLE0=When It Comes To Betty
TTITLE1=Glad My Baby Don´t
TTITLE2=Not Me
TTITLE3=I´ll Ge Over You
TTITLE4=She Loves Me A Lot
TTITLE5=Love Of Mine
TTITLE6=My Mouth Keeps Running
TTITLE7=Don´t Do Today
TTITLE8=Moan In Alimony
TTITLE9=Just One More Time
TTITLE10=Bad Boy
TTITLE11=Brother Of Mine
TTITLE12=Somthing To Hold On To
TTITLE13=Way Past Crazy
TTITLE14=Chandi And Emily´s Song
TTITLE15=Bad Bad Habit
EXTD=
EXTT0=
EXTT1=
EXTT2=
EXTT3=
EXTT4=
EXTT5=
EXTT6=
EXTT7=
EXTT8=
EXTT9=
EXTT10=
EXTT11=
EXTT12=
EXTT13=
EXTT14=
EXTT15=
PLAYORDER=
